<svg width="200" height="60" viewBox="0 0 200 60" fill="none" xmlns="http://www.w3.org/2000/svg">
  <!-- Car silhouette -->
  <path d="M15 35L18 28H28L31 35M15 35H10L8 32V28L10 25H12M15 35V38M31 35H36L38 32V28L36 25H34M31 35V38M15 38H18M31 38H28M18 38C18 39.66 16.66 41 15 41C13.34 41 12 39.66 12 38C12 36.34 13.34 35 15 35M18 38C18 36.34 19.34 35 21 35H27C28.66 35 30 36.34 30 38M28 38C28 39.66 29.34 41 31 41C32.66 41 34 39.66 34 38C34 36.34 32.66 35 31 35"
        stroke="#3b82f6" stroke-width="1.5" stroke-linecap="round" stroke-linejoin="round"/>

  <!-- Text STOFFGARAGE -->
  <text x="48" y="32" font-family="Arial, sans-serif" font-size="20" font-weight="700" fill="#ffffff" letter-spacing="1">
    STOFFGARAGE
  </text>
</svg>
