<svg width="240" height="60" viewBox="0 0 240 60" fill="none" xmlns="http://www.w3.org/2000/svg">
  <!-- Industrial bracket left -->
  <rect x="0" y="10" width="3" height="40" fill="#6b6b6b"/>
  <rect x="0" y="10" width="10" height="3" fill="#6b6b6b"/>
  <rect x="0" y="47" width="10" height="3" fill="#6b6b6b"/>

  <!-- Car silhouette - more realistic -->
  <g transform="translate(15, 25)">
    <!-- Car body -->
    <path d="M5 10 L8 5 H18 L21 10 M5 10 L0 10 L0 13 L3 13 M21 10 L26 10 L26 13 L23 13 M3 13 C3 14.66 4.34 16 6 16 C7.66 16 9 14.66 9 13 M17 13 C17 14.66 18.34 16 20 16 C21.66 16 23 14.66 23 13"
          stroke="#8a8a8a"
          stroke-width="1.5"
          fill="none"
          stroke-linecap="square"
          stroke-linejoin="miter"/>

    <!-- Car details -->
    <rect x="9" y="6" width="8" height="4" fill="none" stroke="#6b6b6b" stroke-width="1"/>
    <circle cx="6" cy="13" r="2.5" fill="#6b6b6b"/>
    <circle cx="20" cy="13" r="2.5" fill="#6b6b6b"/>
  </g>

  <!-- Industrial bracket right -->
  <rect x="52" y="10" width="3" height="40" fill="#6b6b6b"/>
  <rect x="45" y="10" width="10" height="3" fill="#6b6b6b"/>
  <rect x="45" y="47" width="10" height="3" fill="#6b6b6b"/>

  <!-- STOFFGARAGE Text - Bold, Industrial -->
  <text x="65" y="38" font-family="Arial, sans-serif" font-size="24" font-weight="900" fill="#e8e8e8" letter-spacing="2">
    STOFFGARAGE
  </text>

  <!-- Underline accent -->
  <rect x="65" y="42" width="170" height="2" fill="#6b6b6b"/>
</svg>
